<?xml version="1.0" encoding="UTF-8" standalone="no"?>
<!-- Created with Inkscape (http://www.inkscape.org/) -->

<svg
   width="64"
   height="64"
   viewBox="0 0 64 64"
   version="1.1"
   id="svg5"
   inkscape:version="1.3.2 (091e20ef0f, 2023-11-25, custom)"
   sodipodi:docname="folder-C-sharp.svg"
   xml:space="preserve"
   xmlns:inkscape="http://www.inkscape.org/namespaces/inkscape"
   xmlns:sodipodi="http://sodipodi.sourceforge.net/DTD/sodipodi-0.dtd"
   xmlns:xlink="http://www.w3.org/1999/xlink"
   xmlns="http://www.w3.org/2000/svg"
   xmlns:svg="http://www.w3.org/2000/svg"><sodipodi:namedview
     id="namedview7"
     pagecolor="#ffffff"
     bordercolor="#666666"
     borderopacity="1.0"
     inkscape:pageshadow="2"
     inkscape:pageopacity="0.0"
     inkscape:pagecheckerboard="0"
     inkscape:document-units="px"
     showgrid="false"
     units="px"
     height="64px"
     inkscape:zoom="8"
     inkscape:cx="68.6875"
     inkscape:cy="58.875"
     inkscape:window-width="1920"
     inkscape:window-height="1080"
     inkscape:window-x="0"
     inkscape:window-y="0"
     inkscape:window-maximized="1"
     inkscape:current-layer="svg5"
     inkscape:showpageshadow="2"
     inkscape:deskcolor="#d1d1d1" /><defs
     id="defs2"><linearGradient
       inkscape:collect="always"
       xlink:href="#linearGradient2290"
       id="linearGradient11974"
       x1="5.2916665"
       y1="5.5562496"
       x2="13.758334"
       y2="13.493751"
       gradientUnits="userSpaceOnUse"
       gradientTransform="scale(3.7795276)" /><linearGradient
       inkscape:collect="always"
       xlink:href="#linearGradient2474"
       id="linearGradient4407"
       x1="32"
       y1="10.5"
       x2="32"
       y2="18.5"
       gradientUnits="userSpaceOnUse" /><linearGradient
       inkscape:collect="always"
       id="linearGradient2474"><stop
         style="stop-color:#fcbc19;stop-opacity:1;"
         offset="0"
         id="stop2470" /><stop
         style="stop-color:#f4b61f;stop-opacity:1;"
         offset="1"
         id="stop2472" /></linearGradient><linearGradient
       inkscape:collect="always"
       id="linearGradient2290"><stop
         style="stop-color:#fce798;stop-opacity:1;"
         offset="0"
         id="stop2286" /><stop
         style="stop-color:#ffc937;stop-opacity:1"
         offset="1"
         id="stop2288" /></linearGradient><linearGradient
       inkscape:collect="always"
       id="linearGradient2350"><stop
         style="stop-color:#ffffff;stop-opacity:1;"
         offset="0"
         id="stop2346" /><stop
         style="stop-color:#ffffff;stop-opacity:0;"
         offset="1"
         id="stop2348" /></linearGradient><linearGradient
       inkscape:collect="always"
       id="linearGradient2412"><stop
         style="stop-color:#e4a729;stop-opacity:1;"
         offset="0"
         id="stop2408" /><stop
         style="stop-color:#e4a729;stop-opacity:0;"
         offset="1"
         id="stop2410" /></linearGradient><linearGradient
       inkscape:collect="always"
       xlink:href="#linearGradient2412"
       id="linearGradient2543"
       gradientUnits="userSpaceOnUse"
       gradientTransform="translate(-1e-7,-1.9999994)"
       x1="2"
       y1="22"
       x2="62"
       y2="22" /><linearGradient
       inkscape:collect="always"
       xlink:href="#linearGradient2350"
       id="linearGradient2508"
       gradientUnits="userSpaceOnUse"
       gradientTransform="translate(0,-1)"
       x1="2"
       y1="22"
       x2="62"
       y2="22" /><filter
       id="filter0_ddddd_1812_34261"
       x="21.5913"
       y="23.6934"
       width="149.817"
       height="181.612"
       filterUnits="userSpaceOnUse"
       color-interpolation-filters="sRGB"><feFlood
         flood-opacity="0"
         result="BackgroundImageFix"
         id="feFlood6" /><feColorMatrix
         in="SourceAlpha"
         type="matrix"
         values="0 0 0 0 0 0 0 0 0 0 0 0 0 0 0 0 0 0 127 0"
         result="hardAlpha"
         id="feColorMatrix6" /><feOffset
         id="feOffset6" /><feColorMatrix
         type="matrix"
         values="0 0 0 0 0 0 0 0 0 0 0 0 0 0 0 0 0 0 0.1 0"
         id="feColorMatrix7" /><feBlend
         mode="normal"
         in2="BackgroundImageFix"
         result="effect1_dropShadow_1812_34261"
         id="feBlend7" /><feColorMatrix
         in="SourceAlpha"
         type="matrix"
         values="0 0 0 0 0 0 0 0 0 0 0 0 0 0 0 0 0 0 127 0"
         result="hardAlpha"
         id="feColorMatrix8" /><feOffset
         dy="2"
         id="feOffset8" /><feGaussianBlur
         stdDeviation="2"
         id="feGaussianBlur8" /><feColorMatrix
         type="matrix"
         values="0 0 0 0 0 0 0 0 0 0 0 0 0 0 0 0 0 0 0.1 0"
         id="feColorMatrix9" /><feBlend
         mode="normal"
         in2="effect1_dropShadow_1812_34261"
         result="effect2_dropShadow_1812_34261"
         id="feBlend9" /><feColorMatrix
         in="SourceAlpha"
         type="matrix"
         values="0 0 0 0 0 0 0 0 0 0 0 0 0 0 0 0 0 0 127 0"
         result="hardAlpha"
         id="feColorMatrix10" /><feOffset
         dx="2"
         dy="7"
         id="feOffset10" /><feGaussianBlur
         stdDeviation="3.5"
         id="feGaussianBlur10" /><feColorMatrix
         type="matrix"
         values="0 0 0 0 0 0 0 0 0 0 0 0 0 0 0 0 0 0 0.09 0"
         id="feColorMatrix11" /><feBlend
         mode="normal"
         in2="effect2_dropShadow_1812_34261"
         result="effect3_dropShadow_1812_34261"
         id="feBlend11" /><feColorMatrix
         in="SourceAlpha"
         type="matrix"
         values="0 0 0 0 0 0 0 0 0 0 0 0 0 0 0 0 0 0 127 0"
         result="hardAlpha"
         id="feColorMatrix12" /><feOffset
         dx="4"
         dy="16"
         id="feOffset12" /><feGaussianBlur
         stdDeviation="5"
         id="feGaussianBlur12" /><feColorMatrix
         type="matrix"
         values="0 0 0 0 0 0 0 0 0 0 0 0 0 0 0 0 0 0 0.05 0"
         id="feColorMatrix13" /><feBlend
         mode="normal"
         in2="effect3_dropShadow_1812_34261"
         result="effect4_dropShadow_1812_34261"
         id="feBlend13" /><feColorMatrix
         in="SourceAlpha"
         type="matrix"
         values="0 0 0 0 0 0 0 0 0 0 0 0 0 0 0 0 0 0 127 0"
         result="hardAlpha"
         id="feColorMatrix14" /><feOffset
         dx="7"
         dy="29"
         id="feOffset14" /><feGaussianBlur
         stdDeviation="6"
         id="feGaussianBlur14" /><feColorMatrix
         type="matrix"
         values="0 0 0 0 0 0 0 0 0 0 0 0 0 0 0 0 0 0 0.01 0"
         id="feColorMatrix15" /><feBlend
         mode="normal"
         in2="effect4_dropShadow_1812_34261"
         result="effect5_dropShadow_1812_34261"
         id="feBlend15" /><feBlend
         mode="normal"
         in="SourceGraphic"
         in2="effect5_dropShadow_1812_34261"
         result="shape"
         id="feBlend16" /></filter><filter
       id="filter1_ddddd_1812_34261"
       x="43.8801"
       y="71.7133"
       width="92.2397"
       height="66.5777"
       filterUnits="userSpaceOnUse"
       color-interpolation-filters="sRGB"><feFlood
         flood-opacity="0"
         result="BackgroundImageFix"
         id="feFlood16" /><feColorMatrix
         in="SourceAlpha"
         type="matrix"
         values="0 0 0 0 0 0 0 0 0 0 0 0 0 0 0 0 0 0 127 0"
         result="hardAlpha"
         id="feColorMatrix16" /><feOffset
         id="feOffset16" /><feColorMatrix
         type="matrix"
         values="0 0 0 0 0 0 0 0 0 0 0 0 0 0 0 0 0 0 0.1 0"
         id="feColorMatrix17" /><feBlend
         mode="normal"
         in2="BackgroundImageFix"
         result="effect1_dropShadow_1812_34261"
         id="feBlend17" /><feColorMatrix
         in="SourceAlpha"
         type="matrix"
         values="0 0 0 0 0 0 0 0 0 0 0 0 0 0 0 0 0 0 127 0"
         result="hardAlpha"
         id="feColorMatrix18" /><feOffset
         dy="1"
         id="feOffset18" /><feGaussianBlur
         stdDeviation="1"
         id="feGaussianBlur18" /><feColorMatrix
         type="matrix"
         values="0 0 0 0 0 0 0 0 0 0 0 0 0 0 0 0 0 0 0.1 0"
         id="feColorMatrix19" /><feBlend
         mode="normal"
         in2="effect1_dropShadow_1812_34261"
         result="effect2_dropShadow_1812_34261"
         id="feBlend19" /><feColorMatrix
         in="SourceAlpha"
         type="matrix"
         values="0 0 0 0 0 0 0 0 0 0 0 0 0 0 0 0 0 0 127 0"
         result="hardAlpha"
         id="feColorMatrix20" /><feOffset
         dy="4"
         id="feOffset20" /><feGaussianBlur
         stdDeviation="2"
         id="feGaussianBlur20" /><feColorMatrix
         type="matrix"
         values="0 0 0 0 0 0 0 0 0 0 0 0 0 0 0 0 0 0 0.09 0"
         id="feColorMatrix21" /><feBlend
         mode="normal"
         in2="effect2_dropShadow_1812_34261"
         result="effect3_dropShadow_1812_34261"
         id="feBlend21" /><feColorMatrix
         in="SourceAlpha"
         type="matrix"
         values="0 0 0 0 0 0 0 0 0 0 0 0 0 0 0 0 0 0 127 0"
         result="hardAlpha"
         id="feColorMatrix22" /><feOffset
         dy="9"
         id="feOffset22" /><feGaussianBlur
         stdDeviation="2.5"
         id="feGaussianBlur22" /><feColorMatrix
         type="matrix"
         values="0 0 0 0 0 0 0 0 0 0 0 0 0 0 0 0 0 0 0.05 0"
         id="feColorMatrix23" /><feBlend
         mode="normal"
         in2="effect3_dropShadow_1812_34261"
         result="effect4_dropShadow_1812_34261"
         id="feBlend23" /><feColorMatrix
         in="SourceAlpha"
         type="matrix"
         values="0 0 0 0 0 0 0 0 0 0 0 0 0 0 0 0 0 0 127 0"
         result="hardAlpha"
         id="feColorMatrix24" /><feOffset
         dy="15"
         id="feOffset24" /><feGaussianBlur
         stdDeviation="3"
         id="feGaussianBlur24" /><feColorMatrix
         type="matrix"
         values="0 0 0 0 0 0 0 0 0 0 0 0 0 0 0 0 0 0 0.01 0"
         id="feColorMatrix25" /><feBlend
         mode="normal"
         in2="effect4_dropShadow_1812_34261"
         result="effect5_dropShadow_1812_34261"
         id="feBlend25" /><feBlend
         mode="normal"
         in="SourceGraphic"
         in2="effect5_dropShadow_1812_34261"
         result="shape"
         id="feBlend26" /></filter><linearGradient
       id="paint0_linear_1812_34261"
       x1="44.3292"
       y1="22.7978"
       x2="197.531"
       y2="204.708"
       gradientUnits="userSpaceOnUse"><stop
         offset="0.00520833"
         stop-color="white"
         id="stop26" /><stop
         offset="1"
         stop-color="#D3C7FF"
         id="stop27" /></linearGradient><linearGradient
       id="paint1_linear_1812_34261"
       x1="30.4062"
       y1="45.2832"
       x2="109.459"
       y2="173.862"
       gradientUnits="userSpaceOnUse"><stop
         stop-color="#927BE5"
         id="stop28" /><stop
         offset="1"
         stop-color="#512BD4"
         id="stop29" /></linearGradient><linearGradient
       id="paint2_linear_1812_34261"
       x1="39.8502"
       y1="55.9944"
       x2="100.03"
       y2="160.752"
       gradientUnits="userSpaceOnUse"><stop
         stop-color="#927BE5"
         id="stop30" /><stop
         offset="1"
         stop-color="#512BD4"
         id="stop31" /></linearGradient><clipPath
       id="clip0_1812_34261"><rect
         width="180"
         height="190"
         fill="white"
         id="rect31" /></clipPath></defs><path
     id="rect846"
     style="fill:url(#linearGradient4407);fill-opacity:1;stroke-width:2;stroke-linecap:round;stroke-linejoin:round;stroke-dasharray:24, 2"
     d="M 5.0000001,9 C 3.338,9 2,10.338 2,12 2.094521,12.977241 2,40.000002 2,40.000002 H 62 V 17 c 0,-1.108 -0.891999,-2 -1.999997,-2 H 29.000001 l -4,-4 c -1.365257,-1.3362318 -2.338,-2 -4,-2 z"
     sodipodi:nodetypes="scccccccss" /><path
     id="rect1170"
     style="fill:url(#linearGradient11974);fill-opacity:1;stroke-width:2.64576;stroke-linecap:round;stroke-linejoin:round;stroke-dasharray:31.749, 2.64576"
     d="M 29.000001,16 23,20 H 6.0000003 C 3.7839999,20 2,21.784 2,24 v 30 c 0,1.108003 0.8919999,2.000001 2.0000001,2.000001 H 60.000003 C 61.108001,56.000001 62,55.108003 62,54 V 18 c 0,-1.108 -0.891995,-2 -1.999997,-2 z"
     sodipodi:nodetypes="ccsccccccsc" /><path
     id="path2554"
     style="fill:#e4a729;fill-opacity:1;stroke-width:2.64576;stroke-linecap:round;stroke-linejoin:round;stroke-dasharray:31.749, 2.64576"
     d="M 2 53 L 2 54 C 2 55.107999 2.8920009 56 4 56 L 60 56 C 61.107999 56 62 55.107999 62 54 L 62 53 C 62 54.107999 61.107999 55 60 55 L 4 55 C 2.8920011 55 2 54.107999 2 53 z " /><path
     id="path2519"
     style="fill:url(#linearGradient2543);fill-opacity:1;stroke-width:2.64576;stroke-linecap:round;stroke-linejoin:round;stroke-dasharray:31.749, 2.64576"
     d="M 29 15 L 23 19 L 6 19 C 3.7908642 19.000002 2 20.790864 2 23 L 2 24 C 2 21.790864 3.7908642 20.000002 6 20 L 23 20 L 29 16 L 60 16 C 61.108001 16 62 16.892001 62 18 L 62 17 C 62 15.892001 61.108001 15 60 15 L 29 15 z " /><path
     id="path2484"
     style="opacity:0.3;fill:url(#linearGradient2508);fill-opacity:1;stroke-width:2.64576;stroke-linecap:round;stroke-linejoin:round;stroke-dasharray:31.749, 2.64576"
     d="M 29 16 L 23 20 L 6 20 C 3.7840022 20 2 21.784002 2 24 L 2 25 C 2 22.784002 3.7840022 21 6 21 L 23 21 L 29 17 L 60 17 C 61.108005 17 62 17.892001 62 19 L 62 18 C 62 16.892001 61.108005 16 60 16 L 29 16 z " /><g
     style="fill:none"
     id="g1"
     transform="matrix(0.17833427,0,0,0.17833427,32.992799,23.822101)"><g
       clip-path="url(#clip0_1812_34261)"
       id="g6"><path
         d="m 90.0001,189 c 3.06,0 6.07,-0.85 8.73,-2.47 L 160.7,148.87 c 5.54,-3.37 8.97,-9.7 8.97,-16.54 V 57.6201 c 0,-6.82 -3.43,-13.16 -8.97,-16.54 L 98.7301,3.42006 c -5.33,-3.239996 -12.15,-3.219996 -17.45,0 l -61.97,37.68004 c -5.54,3.37 -8.99,9.7 -8.99,16.54 V 132.34 c 0,5.76 2.45,11.18 6.55,14.75 v 0.03 l 64.41,39.43 c 2.64,1.6 5.66,2.45 8.72,2.45 z m 0.65,-181.04994 c 1.95,0 4.43,1.21 6.14,2.26004 l 60.7599,37.19 c 3.75,2.28 5.87,8.88 5.87,13.63 l -0.63,71.2999 c 0,4.75 -3.2,9.02 -6.95,11.3 l -60.3999,36.38 c -3.43,2.09 -6.22,2.09 -9.66,0 l -61.21,-36.47 c -3.75,-2.28 -6.77,-6.48 -6.77,-11.21 V 58.6901 c 0,-4.74 2.73,-9.63 6.5,-11.92 l 60.58,-36.56 c 1.7,-1.04004 3.82,-2.26004 5.77,-2.26004 z"
         fill="#f2f1f0"
         id="path1" /><path
         fill-rule="evenodd"
         clip-rule="evenodd"
         d="m 97.9001,11.5298 c -2.45,-1.5 -5.17,-2.25001 -7.9,-2.25001 -2.73,0 -5.45,0.76001 -7.9,2.25001 l -56.13,34.33 c -5.02,3.07 -8.13,8.82 -8.13,15.07 V 129.03 c 0,6.23 3.1,12 8.13,15.07 l 56.13,34.33 c 2.45,1.5 5.17,2.25 7.9,2.25 2.73,0 5.45,-0.74 7.9,-2.25 L 154.03,144.1 c 5.02,-3.07 8.13,-8.84 8.13,-15.07 V 60.9298 c 0,-6.23 -3.1,-11.98 -8.13,-15.07 z"
         fill="url(#paint0_linear_1812_34261)"
         id="path2"
         style="fill:url(#paint0_linear_1812_34261)" /><path
         fill-rule="evenodd"
         clip-rule="evenodd"
         d="m 90.0001,10.75 c 1.68,0 3.57,0.87 5.63,2.12 L 154.1,48.41 c 3.65,2.22 6.06,6.49 6.06,11.32 v 70.48 c 0,4.82 -2.41,9.1 -6.06,11.32 l -58.4599,35.54 c -1.96,1.19 -3.88,1.94 -5.63,1.94 -1.75,0 -3.67,-0.75 -5.63,-1.94 l -58.48,-35.53 c -2.01,-1.23 -3.46,-2.43 -4.44,-4.04 -0.98,-1.6 -1.62,-3.82 -1.62,-7.28 V 59.74 c 0,-4.83 2.41,-9.1 6.06,-11.32 l 58.46,-35.54 c 2.09,-1.25 3.95,-2.13 5.64,-2.13 z m 7.71,169.75 58.4599,-35.54 c 4.92,-2.99 7.98,-8.61 7.98,-14.74 V 59.74 c 0,-6.13 -3.06,-11.75 -7.98,-14.74 L 97.7101,9.46 c -2.11,-1.28 -4.82,-2.71 -7.71,-2.71 -2.9,0 -5.61,1.44 -7.7,2.7 h -0.01 L 23.8201,45 c -4.92,2.99 -7.98,8.61 -7.98,14.74 v 70.48 c 0,3.96 0.74,6.95 2.2,9.36 1.46,2.4 3.52,4 5.78,5.37 l 58.46,35.54 c 2.22,1.35 4.89,2.53 7.71,2.53 2.82,0 5.5,-1.17 7.72,-2.52 z"
         fill="url(#paint1_linear_1812_34261)"
         id="path3"
         style="fill:url(#paint1_linear_1812_34261)" /><g
         filter="url(#filter0_ddddd_1812_34261)"
         id="g4"><path
           d="m 27.5913,69.2603 v 51.4737 c 0,6.37 3.3968,12.259 8.9155,15.442 l 44.5777,25.739 c 5.5187,3.187 12.3124,3.187 17.8311,0 l 44.5774,-25.739 c 5.519,-3.187 8.916,-9.072 8.916,-15.442 V 69.2603 c 0,-6.3701 -3.397,-12.2589 -8.916,-15.4417 L 98.9156,28.0838 c -5.5187,-3.1873 -12.3124,-3.1873 -17.8311,0 L 36.5068,53.8186 c -5.5187,3.1873 -8.9155,9.0716 -8.9155,15.4417 z"
           fill="url(#paint2_linear_1812_34261)"
           id="path4"
           style="fill:url(#paint2_linear_1812_34261)" /></g><g
         filter="url(#filter1_ddddd_1812_34261)"
         id="g5"><path
           d="m 58.7957,86.0866 v 17.8314 c 0,1.181 0.468,2.318 1.3061,3.151 0.8381,0.838 1.9703,1.306 3.1516,1.306 1.1813,0 2.3181,-0.468 3.1517,-1.306 0.838,-0.838 1.3061,-1.97 1.3061,-3.151 0,-1.182 0.4681,-2.318 1.3061,-3.152 0.8381,-0.8381 1.9704,-1.3061 3.1517,-1.3061 1.1813,0 2.318,0.468 3.1516,1.3061 0.8381,0.838 1.3061,1.97 1.3061,3.152 0,3.548 -1.4086,6.949 -3.9183,9.455 -2.5098,2.509 -5.911,3.918 -9.455,3.918 -3.5439,0 -6.9496,-1.409 -9.4549,-3.918 -2.5097,-2.51 -3.9184,-5.911 -3.9184,-9.455 V 86.0866 c 0,-3.5484 1.4087,-6.9497 3.9184,-9.455 2.5097,-2.5097 5.911,-3.9183 9.4549,-3.9183 3.544,0 6.9497,1.4086 9.455,3.9183 2.5052,2.5098 3.9183,5.911 3.9183,9.455 0,1.1813 -0.468,2.318 -1.3061,3.1516 -0.8381,0.8381 -1.9703,1.3061 -3.1516,1.3061 -1.1813,0 -2.3181,-0.468 -3.1517,-1.3061 -0.838,-0.8381 -1.3061,-1.9703 -1.3061,-3.1516 0,-1.1813 -0.4681,-2.3181 -1.3061,-3.1517 -0.8381,-0.838 -1.9704,-1.3061 -3.1517,-1.3061 -1.1813,0 -2.318,0.4681 -3.1516,1.3061 -0.8381,0.8381 -1.3061,1.9704 -1.3061,3.1517 z M 130.12,103.918 c 0,1.181 -0.468,2.318 -1.306,3.151 -0.838,0.838 -1.971,1.306 -3.152,1.306 h -4.458 v 4.458 c 0,1.181 -0.468,2.318 -1.306,3.152 -0.838,0.833 -1.97,1.306 -3.151,1.306 -1.182,0 -2.318,-0.468 -3.152,-1.306 -0.834,-0.838 -1.306,-1.971 -1.306,-3.152 v -4.458 h -8.916 v 4.458 c 0,1.181 -0.468,2.318 -1.306,3.152 -0.838,0.833 -1.97,1.306 -3.1514,1.306 -1.1813,0 -2.3181,-0.468 -3.1517,-1.306 -0.838,-0.838 -1.3061,-1.971 -1.3061,-3.152 v -4.458 H 90 c -1.1813,0 -2.318,-0.468 -3.1516,-1.306 -0.8381,-0.838 -1.3061,-1.97 -1.3061,-3.151 0,-1.182 0.468,-2.318 1.3061,-3.152 0.8381,-0.8381 1.9703,-1.3061 3.1516,-1.3061 h 4.4578 V 90.5443 H 90 c -1.1813,0 -2.318,-0.468 -3.1516,-1.3061 -0.8381,-0.8381 -1.3061,-1.9703 -1.3061,-3.1516 0,-1.1813 0.468,-2.3181 1.3061,-3.1517 0.8381,-0.838 1.9703,-1.3061 3.1516,-1.3061 h 4.4578 V 77.171 c 0,-1.1813 0.4681,-2.318 1.3061,-3.1516 0.8381,-0.8381 1.9704,-1.3061 3.1517,-1.3061 1.1814,0 2.3184,0.468 3.1514,1.3061 0.838,0.838 1.306,1.9703 1.306,3.1516 v 4.4578 h 8.916 V 77.171 c 0,-1.1813 0.468,-2.318 1.306,-3.1516 0.838,-0.8381 1.97,-1.3061 3.152,-1.3061 1.181,0 2.318,0.468 3.151,1.3061 0.834,0.838 1.306,1.9703 1.306,3.1516 v 4.4578 h 4.458 c 1.181,0 2.318,0.4681 3.152,1.3061 0.833,0.8381 1.306,1.9704 1.306,3.1517 0,1.1813 -0.468,2.318 -1.306,3.1516 -0.838,0.8381 -1.971,1.3061 -3.152,1.3061 h -4.458 v 8.9156 h 4.458 c 1.181,0 2.318,0.468 3.152,1.3061 0.833,0.838 1.306,1.97 1.306,3.152 z M 112.289,90.5443 h -8.916 v 8.9156 h 8.916 z"
           fill="#ffffff"
           id="path5" /></g></g></g></svg>
