<?xml version="1.0" encoding="UTF-8" standalone="no"?>
<svg
   viewBox="0 0 50 50"
   width="100px"
   height="100px"
   version="1.1"
   id="svg1"
   sodipodi:docname="folder.svg"
   inkscape:version="1.3.2 (091e20ef0f, 2023-11-25, custom)"
   xmlns:inkscape="http://www.inkscape.org/namespaces/inkscape"
   xmlns:sodipodi="http://sodipodi.sourceforge.net/DTD/sodipodi-0.dtd"
   xmlns="http://www.w3.org/2000/svg"
   xmlns:svg="http://www.w3.org/2000/svg">
  <defs
     id="defs1" />
  <sodipodi:namedview
     id="namedview1"
     pagecolor="#ffffff"
     bordercolor="#000000"
     borderopacity="0.25"
     inkscape:showpageshadow="2"
     inkscape:pageopacity="0.0"
     inkscape:pagecheckerboard="0"
     inkscape:deskcolor="#d1d1d1"
     inkscape:zoom="6.32"
     inkscape:cx="39.952532"
     inkscape:cy="54.588608"
     inkscape:window-width="1896"
     inkscape:window-height="1020"
     inkscape:window-x="0"
     inkscape:window-y="0"
     inkscape:window-maximized="1"
     inkscape:current-layer="svg1" />
  <path
     style="fill:#ffffff;fill-opacity:1;stroke:#000000;stroke-width:0.00774244;stroke-linejoin:round;stroke-miterlimit:32;stroke-opacity:0.828082;paint-order:stroke markers fill"
     d="M 8.6877631,4.3395408 C 7.2259616,4.3205383 5.6563746,4.3960777 4.4253391,5.28436 3.083629,6.2165908 1.9352169,7.6174162 1.6866034,9.2699006 1.5585809,14.348387 1.6275961,19.430463 1.6040824,24.510405 c 0.010145,5.465129 -0.021293,10.934671 0.015736,16.397036 0.6933165,2.288948 2.6265844,4.28295 5.047953,4.658462 2.9667095,0.101821 5.9414744,0.04605 8.9112104,0.07593 9.21489,0.01315 18.432468,0.0329 27.645702,0.01163 2.082986,-0.466841 3.960996,-1.910783 4.769255,-3.912943 0.562731,-1.197717 0.313438,-2.560687 0.391166,-3.837492 0.0068,-7.914902 0.04751,-15.83066 -0.05482,-23.745013 C 48.32544,12.507932 47.400641,11.018587 46.193478,9.9548377 45.34516,9.2126711 44.291255,8.6202898 43.132758,8.6357568 38.725099,8.4703197 34.311775,8.5420911 29.901783,8.4837349 26.89779,8.4414257 23.882741,8.4803441 20.890414,8.3488311 18.693353,7.1772417 16.975187,5.165126 14.554554,4.4040448 12.60676,4.317342 10.641347,4.3544279 8.6877582,4.3395498 Z m 2.1036139,3.9413845 c 1.109848,0.050676 2.27071,-0.076608 3.348756,0.2835363 1.24067,0.7032869 2.304533,1.6795994 3.498881,2.4575754 0.900476,0.638176 1.87607,1.314342 3.03092,1.292206 4.284287,0.174724 8.57497,0.106631 12.861939,0.165764 3.131214,0.02172 6.262429,0.04344 9.393643,0.06515 0.814052,0.352797 1.526814,1.128101 1.451458,2.068119 -0.0537,0.235216 0.186122,0.766478 -0.130859,0.751519 -12.906313,0.0019 -25.812764,0.05385 -38.7189918,-0.0064 0.00944,-1.872471 -0.072258,-3.775554 0.1406342,-5.610512 C 5.9490813,8.8517485 6.9048141,8.2943654 7.8227862,8.3547 8.8184165,8.3017616 9.8002891,8.2802582 10.791375,8.2809045 Z M 24.981208,19.380284 c 6.479199,0 12.9584,0 19.4376,0 -0.02353,6.680691 0.02285,13.405636 -0.07432,20.059511 0.135093,1.061267 -0.708235,2.138598 -1.801413,2.139417 -5.547615,0.113226 -11.127719,0.03986 -16.68902,0.05841 -6.211377,-0.01453 -12.423829,0.0073 -18.6344755,-0.06209 -0.9668699,-0.121447 -1.7521803,-1.113552 -1.6070487,-2.079191 -0.123094,-6.70465 -0.09173,-13.410685 -0.071639,-20.116047 6.4801082,0 12.9602162,0 19.4403222,0 z"
     id="path3" />
</svg>
