<?xml version="1.0" encoding="UTF-8" standalone="no"?>
<svg
   width="128"
   height="128"
   viewBox="0 0 128 128"
   version="1.1"
   id="svg1"
   sodipodi:docname="extensions.svg"
   inkscape:version="1.3.2 (091e20ef0f, 2023-11-25, custom)"
   xmlns:inkscape="http://www.inkscape.org/namespaces/inkscape"
   xmlns:sodipodi="http://sodipodi.sourceforge.net/DTD/sodipodi-0.dtd"
   xmlns="http://www.w3.org/2000/svg"
   xmlns:svg="http://www.w3.org/2000/svg">
  <defs
     id="defs1" />
  <sodipodi:namedview
     id="namedview1"
     pagecolor="#ffffff"
     bordercolor="#000000"
     borderopacity="0.25"
     inkscape:showpageshadow="2"
     inkscape:pageopacity="0.0"
     inkscape:pagecheckerboard="0"
     inkscape:deskcolor="#d1d1d1"
     inkscape:zoom="3.6875"
     inkscape:cx="9.6271186"
     inkscape:cy="52.61017"
     inkscape:window-width="1920"
     inkscape:window-height="1080"
     inkscape:window-x="0"
     inkscape:window-y="0"
     inkscape:window-maximized="1"
     inkscape:current-layer="svg1" />
  <path
     style="fill:#ffffff;stroke:#000000;stroke-width:0.433898;stroke-linecap:butt;stroke-linejoin:round;stroke-miterlimit:32;stroke-dasharray:none;paint-order:stroke markers fill"
     d="m 56.379502,11.64036 c -2.785197,-0.07027 -5.444802,1.048143 -7.704378,2.600895 -3.893866,2.89646 -6.294887,7.607657 -6.434923,12.451012 -0.06788,1.163639 -0.05089,2.329736 -0.0535,3.494704 -4.90562,0.04742 -9.821285,-0.102693 -14.720338,0.167108 -4.790969,0.691091 -8.738336,4.495372 -10.23657,9.004992 -0.816448,2.582136 -0.483474,5.346688 -0.606963,8.012198 0.0232,4.817382 -0.173766,9.642395 0.05407,14.455267 0.214233,2.086512 2.177787,3.842693 4.306372,3.645461 2.705815,0.157062 5.443689,-0.05224 8.130069,0.314021 3.299871,1.259055 5.542435,4.852104 5.232256,8.377647 -0.02325,2.346012 -1.036888,4.622922 -2.799788,6.170551 -1.135857,1.170773 -2.728659,1.793295 -4.355138,1.740996 -2.57842,0.14528 -5.19345,-0.131288 -7.75053,0.258475 -1.492917,0.599536 -2.765922,2.01216 -2.757323,3.692422 -0.248331,5.095745 -0.03243,10.203541 -0.05721,15.303821 0.06336,2.59948 -0.18569,5.31125 0.904845,7.75323 1.269598,3.17542 3.813496,5.84142 6.890625,7.31885 2.437854,1.2363 5.235955,0.81593 7.864402,0.91992 4.557474,-0.0342 9.121919,0.11671 13.675057,-0.0926 1.866359,-0.28186 3.286931,-2.18618 3.160263,-4.05495 0.181154,-3.10748 -0.05091,-6.24507 0.36728,-9.33435 0.622085,-2.2348 2.36117,-4.093355 4.39698,-5.142741 2.857044,-1.329083 6.471321,-0.4633 8.444121,1.984111 1.364714,1.49691 2.162756,3.49297 2.028485,5.53062 0.132167,2.78039 -0.06661,5.59036 0.308115,8.35153 0.443305,1.28408 1.59822,2.42672 2.942002,2.71239 6.389862,0.0939 12.786742,0.0282 19.17424,-0.0272 2.684256,-0.6186 5.022443,-2.25496 6.786622,-4.3405 2.18629,-2.40139 3.529301,-5.60738 3.385816,-8.88107 0.0886,-4.827677 0.08396,-9.656562 0.126309,-14.484787 2.727005,0.04402 5.56799,0.0654 8.07522,-1.173199 5.77106,-2.550341 9.40898,-8.947102 8.97007,-15.197299 0.005,-5.939192 -3.89779,-11.580686 -9.26854,-13.992584 -2.44178,-1.057077 -5.14749,-1.22753 -7.775161,-1.19624 -0.08591,-5.440458 0.03735,-10.888076 -0.210011,-16.323888 -0.415799,-2.857213 -1.820085,-5.562443 -3.894518,-7.571225 -2.124202,-2.347541 -5.192543,-3.954551 -8.412649,-3.80553 -4.37065,-0.07491 -8.742294,-0.06935 -13.113383,-0.106031 -0.05609,-3.624073 -0.121192,-7.476811 -2.104551,-10.657072 -2.234836,-4.044527 -6.231833,-7.365797 -10.943885,-7.826886 -0.672786,-0.05814 -1.349034,-0.0667 -2.023863,-0.05206 z m 0.690943,5.175583 c 3.464946,-0.09668 6.371089,2.439066 8.014831,5.284957 0.951416,1.658638 1.400022,3.504857 1.307356,5.421031 0.08804,2.374106 -0.04256,4.813939 0.172099,7.178857 0.39327,1.157382 1.886279,0.601192 2.811312,0.737443 5.555621,0.023 11.11124,0.0462 16.66686,0.06945 2.817908,0.994305 5.224056,3.454186 5.835837,6.413707 0.361533,4.382637 0.139693,8.791315 0.206006,13.197522 0.02698,2.406 -0.05366,4.828141 0.03978,7.22417 0.247008,1.257355 1.789873,0.788254 2.708176,0.896098 2.393718,0.130167 4.827848,-0.14288 7.187688,0.358281 4.02135,1.396253 7.18118,5.330591 7.2036,9.660905 0.26355,3.738224 -1.4974,7.574127 -4.66496,9.628645 -1.56657,1.110833 -3.48858,1.496166 -5.379212,1.456212 -2.119379,0.103126 -4.269747,-0.02956 -6.368899,0.19099 -1.156334,0.397668 -0.593721,1.88888 -0.726175,2.814572 -0.05725,5.877625 0.126851,11.77443 -0.129121,17.632757 -0.145236,2.73242 -2.128178,4.99333 -4.325594,6.42259 -1.086325,0.65903 -2.337719,0.86916 -3.594543,0.74841 -4.904132,0 -9.808264,0 -14.712395,0 -0.129035,-3.07169 0.07482,-6.1721 -0.340042,-9.22457 -0.929361,-4.142378 -4.073427,-7.687521 -7.973782,-9.300056 -2.337906,-0.887114 -4.974472,-0.921088 -7.39036,-0.337924 -5.507103,1.64164 -9.572925,7.22233 -9.325123,12.98567 -0.03921,1.98095 -0.05933,3.96224 -0.08907,5.94335 -5.464868,-0.0563 -10.943169,0.0976 -16.390891,-0.14539 -3.012735,-0.56929 -5.448768,-3.21079 -6.082892,-6.16446 -0.251711,-5.78608 -0.111962,-11.602461 -0.189177,-17.405379 -0.327862,-1.151764 0.367973,-1.284295 1.350989,-1.130899 3.303719,-0.05989 6.932335,0.319308 9.844809,-1.579978 4.167604,-2.584587 6.867827,-7.467208 6.525396,-12.400042 -0.0087,-3.486839 -1.382683,-6.940255 -3.88596,-9.386571 -2.06265,-2.321369 -5.097767,-3.72543 -8.213236,-3.676953 -1.875492,-0.06578 -3.752579,-0.03263 -5.628795,-0.0412 0.05433,-6.182442 -0.0064,-12.384033 0.119208,-18.55455 0.747326,-2.86725 2.991704,-5.353937 5.832714,-6.189646 6.215329,-0.109619 12.460172,-0.06394 18.686849,-0.113855 1.264314,-0.130705 0.984834,-1.589929 0.995763,-2.491525 0.101998,-2.979875 -0.263899,-6.003414 0.447563,-8.926643 1.068609,-3.453397 3.994061,-6.522336 7.594015,-7.109904 0.616319,-0.07663 1.238854,-0.09526 1.859375,-0.08607 z"
     id="path2"
     inkscape:label="path1" />
</svg>
